<svg xmlns="http://www.w3.org/2000/svg" width="94" height="89" viewBox="0 0 94 89">
  <g fill="#A1CFC4" fill-rule="evenodd">
    <path class="base_b" d="M43.3411359,78.2845321 C41.1134192,82.0061439 37.7884007,83.8672364 33.3712188,83.8672364 C32.3584127,83.8672364 31.3473193,83.7084675 30.3367969,83.388637 C29.3257035,83.0699529 28.3894003,82.5426338 27.5278871,81.8089724 C26.6663739,81.0753111 25.8996329,80.0894536 25.2253803,78.8485342 C24.5505569,77.6076148 24.0447247,76.0474381 23.7061712,74.1668577 L23.7061712,44.8387452 C24.1943049,44.1251449 24.7943383,43.3714225 25.5062713,42.5827365 C26.2159207,41.7929042 27.0317605,41.0592429 27.9497945,40.3828988 C28.8666866,39.7059816 29.877209,39.1511502 30.9825036,38.7184046 C32.0877982,38.2873786 33.294145,38.0701461 34.6061114,38.0701461 C36.3662474,38.0701461 37.9859379,38.5212332 39.464612,39.4234074 C40.9438569,40.3261547 42.2181429,41.7281357 43.2863279,43.6247649 C44.353942,45.5248332 45.1869093,47.9218424 45.784659,50.8157925 C46.3846924,53.7131817 46.6838527,57.1338777 46.6838527,61.0818929 C46.6838527,68.8277519 45.5694235,74.5617739 43.3411359,78.2845321 Z M58.172408,36.4916278 C56.056591,34.0854478 53.5856638,32.2524408 50.7579138,30.9914604 C47.9295928,29.7327726 44.9060183,29.1034287 41.6843358,29.1034287 C39.7746197,29.1034287 37.9488283,29.3842835 36.2081035,29.9488588 C34.465666,30.5122878 32.8551101,31.2465223 31.3758652,32.1486965 C29.8966202,33.0508707 28.5566788,34.06596 27.3588958,35.1945375 C26.1611127,36.3213955 25.1483066,37.449973 24.3261866,38.5774041 L23.7061712,38.5774041 L23.7061712,15.1718875 L24.6076485,1.52177413 L23.0890103,0 L0,5.1327636 L0,6.99328293 L6.46049257,12.5215358 L6.46049257,79.1867063 C8.0339388,81.0667135 9.89741067,82.626317 12.0509082,83.8672364 C14.2044057,85.1081558 16.4612392,86.1054767 18.8191248,86.8563332 C21.1798651,87.6089093 23.5480273,88.1436796 25.925895,88.4640833 C28.3037628,88.7839138 30.5428978,88.9621706 32.6393037,89 C37.7707023,89 42.3391772,88.2015701 46.3475828,86.6029908 C50.3554176,85.0055578 53.7443787,82.7959762 56.5150371,79.9753922 C59.2862664,77.1559546 61.3935197,73.8103442 62.8356551,69.9362683 C64.2772195,66.0644852 65,61.8528105 65,57.3023906 C65,52.8282027 64.3891192,48.8429313 63.1736377,45.3460032 C61.9558725,41.8490752 60.288796,38.8972346 58.172408,36.4916278 Z"/>
    <rect class="line_one" width="6" height="30" x="76" y="12" fill-rule="nonzero"/>
    <rect class="line_two" width="6" height="30" x="76" y="12" fill-rule="nonzero" transform="rotate(90 79 27)"/>
  </g>
</svg>
